<svg width="306" height="240" viewBox="0 0 306 240" fill="none" xmlns="http://www.w3.org/2000/svg">
<g clip-path="url(#clip0_208_924)">
<path d="M278.231 219.095C272.371 225.369 265.657 230.786 258.287 235.187C258.118 235.29 257.946 235.388 257.773 235.489L245.841 224.927C245.966 224.811 246.105 224.68 246.254 224.536C255.145 216.093 299.283 157.061 302.225 142.686C302.022 143.884 304.878 190.849 278.231 219.095Z" fill="#F0F0F0"/>
<path d="M260.589 237.224C260.363 237.278 260.134 237.329 259.904 237.375L250.952 229.451C251.127 229.39 251.331 229.317 251.565 229.237C255.406 227.877 266.845 223.771 278.23 219.094C290.463 214.067 302.637 208.386 305.255 204.748C304.693 205.593 287.393 231.23 260.589 237.224Z" fill="#F0F0F0"/>
<path d="M278.065 62.8553H276.791V27.9289C276.791 25.2743 276.268 22.6457 275.252 20.1931C274.236 17.7406 272.747 15.5122 270.87 13.6351C268.993 11.758 266.765 10.269 264.313 9.25312C261.861 8.23725 259.232 7.71439 256.578 7.71439H182.587C179.933 7.71438 177.304 8.23724 174.852 9.2531C172.4 10.269 170.171 11.758 168.294 13.635C166.418 15.5121 164.929 17.7405 163.913 20.1931C162.897 22.6456 162.374 25.2742 162.374 27.9288V219.538C162.374 222.193 162.897 224.821 163.913 227.274C164.929 229.726 166.418 231.955 168.294 233.832C170.171 235.709 172.4 237.198 174.852 238.214C177.304 239.23 179.933 239.752 182.587 239.752H256.578C259.232 239.753 261.86 239.23 264.313 238.214C266.765 237.198 268.993 235.709 270.87 233.832C272.747 231.955 274.236 229.726 275.252 227.274C276.268 224.821 276.791 222.193 276.791 219.538V87.7165H278.065V62.8553Z" fill="#3F3D56"/>
<path d="M272.488 28.0677V219.398C272.488 221.38 272.097 223.344 271.338 225.175C270.58 227.007 269.468 228.671 268.066 230.072C266.664 231.474 264.999 232.585 263.168 233.344C261.336 234.102 259.373 234.492 257.391 234.491H183.044C181.062 234.491 179.099 234.101 177.268 233.342C175.437 232.584 173.774 231.472 172.372 230.071C170.971 228.669 169.859 227.005 169.101 225.174C168.342 223.343 167.952 221.38 167.952 219.398V28.0677C167.952 26.0857 168.342 24.123 169.101 22.2918C169.859 20.4605 170.971 18.7967 172.372 17.3951C173.774 15.9936 175.437 14.8819 177.268 14.1235C179.099 13.365 181.062 12.9747 183.044 12.9749H192.066C191.623 14.0639 191.455 15.2452 191.576 16.4146C191.696 17.5841 192.102 18.706 192.758 19.6816C193.414 20.6573 194.3 21.4568 195.337 22.0098C196.375 22.5629 197.532 22.8526 198.708 22.8533H241.095C242.271 22.8545 243.43 22.566 244.468 22.0135C245.507 21.461 246.393 20.6613 247.049 19.6851C247.706 18.7089 248.112 17.5861 248.232 16.4159C248.351 15.2456 248.181 14.0639 247.737 12.9749H257.391C259.373 12.9742 261.336 13.364 263.168 14.1222C264.999 14.8804 266.664 15.992 268.066 17.3935C269.468 18.7951 270.58 20.4592 271.338 22.2907C272.097 24.1222 272.488 26.0852 272.488 28.0677Z" fill="white"/>
<path d="M249.361 127.493H184.013C182.868 127.492 181.771 127.037 180.961 126.227C180.152 125.418 179.697 124.32 179.695 123.176V121.027C179.697 119.882 180.152 118.784 180.961 117.975C181.771 117.166 182.868 116.71 184.013 116.709H249.361C250.506 116.71 251.603 117.166 252.412 117.975C253.222 118.784 253.677 119.882 253.678 121.027V123.176C253.677 124.32 253.222 125.418 252.412 126.227C251.603 127.037 250.506 127.492 249.361 127.493Z" fill="#F0F0F0"/>
<path d="M249.361 146.019H184.013C182.868 146.017 181.771 145.562 180.961 144.753C180.152 143.943 179.697 142.846 179.695 141.701V139.552C179.697 138.407 180.152 137.31 180.961 136.5C181.771 135.691 182.868 135.236 184.013 135.234H249.361C250.506 135.236 251.603 135.691 252.412 136.5C253.222 137.31 253.677 138.407 253.678 139.552V141.701C253.677 142.846 253.222 143.943 252.412 144.753C251.603 145.562 250.506 146.017 249.361 146.019Z" fill="#F0F0F0"/>
<path d="M252.63 123.35H187.282C186.08 123.349 184.928 122.871 184.078 122.021C183.228 121.171 182.75 120.018 182.749 118.817V116.667C182.75 115.466 183.228 114.313 184.078 113.463C184.928 112.613 186.08 112.135 187.282 112.134H252.63C253.832 112.135 254.984 112.613 255.834 113.463C256.684 114.313 257.162 115.466 257.163 116.667V118.817C257.162 120.018 256.684 121.171 255.834 122.021C254.984 122.871 253.832 123.349 252.63 123.35ZM187.282 112.997C186.309 112.999 185.376 113.386 184.688 114.074C184 114.762 183.613 115.694 183.612 116.667V118.817C183.613 119.79 184 120.722 184.688 121.41C185.376 122.098 186.309 122.485 187.282 122.486H252.63C253.603 122.485 254.536 122.098 255.224 121.41C255.912 120.722 256.299 119.79 256.3 118.817V116.667C256.299 115.694 255.912 114.762 255.224 114.074C254.536 113.386 253.603 112.999 252.63 112.997H187.282Z" fill="#3F3D56"/>
<path d="M252.63 141.876H187.282C186.08 141.874 184.928 141.396 184.078 140.546C183.228 139.696 182.75 138.544 182.749 137.342V135.193C182.75 133.991 183.228 132.839 184.078 131.989C184.928 131.139 186.08 130.661 187.282 130.659H252.63C253.832 130.661 254.984 131.139 255.834 131.989C256.684 132.839 257.162 133.991 257.163 135.193V137.342C257.162 138.544 256.684 139.696 255.834 140.546C254.984 141.396 253.832 141.874 252.63 141.876ZM187.282 131.523C186.309 131.524 185.376 131.911 184.688 132.599C184 133.287 183.613 134.22 183.612 135.193V137.342C183.613 138.315 184 139.248 184.688 139.936C185.376 140.624 186.309 141.011 187.282 141.012H252.63C253.603 141.011 254.536 140.624 255.224 139.936C255.912 139.248 256.299 138.315 256.3 137.342V135.193C256.299 134.22 255.912 133.287 255.224 132.599C254.536 131.911 253.603 131.524 252.63 131.523H187.282Z" fill="#3F3D56"/>
<path d="M272.488 28.0677V69.6847C265.876 71.4245 258.952 71.624 252.251 70.2682C245.549 68.9123 239.248 66.037 233.832 61.8636C228.416 57.6902 224.03 52.3299 221.01 46.1951C217.99 40.0603 216.418 33.3145 216.415 26.4767C216.415 25.2562 216.464 24.0484 216.562 22.8533H241.095C242.271 22.8545 243.43 22.566 244.468 22.0135C245.507 21.4609 246.393 20.6613 247.049 19.6851C247.706 18.7089 248.112 17.5861 248.232 16.4159C248.352 15.2456 248.182 14.0639 247.737 12.9749H257.391C259.373 12.9742 261.336 13.364 263.168 14.1222C264.999 14.8804 266.664 15.992 268.066 17.3935C269.468 18.7951 270.58 20.4592 271.339 22.2907C272.097 24.1222 272.488 26.0852 272.488 28.0677Z" fill="#F0F0F0"/>
<path d="M205.518 231.892C205.518 232.769 205.485 233.635 205.414 234.491H183.044C181.062 234.491 179.099 234.101 177.268 233.342C175.437 232.584 173.774 231.472 172.372 230.071C170.971 228.669 169.859 227.005 169.101 225.174C168.342 223.343 167.952 221.38 167.952 219.398V198.933C172.641 198.323 177.407 198.72 181.93 200.096C186.454 201.473 190.633 203.798 194.187 206.917C197.742 210.036 200.591 213.876 202.545 218.183C204.499 222.489 205.512 227.163 205.518 231.892H205.518Z" fill="#0065FF"/>
<path d="M25.0924 195.983C25.721 196.259 26.4336 196.275 27.0738 196.027C27.7141 195.779 28.2298 195.287 28.5078 194.659L48.6603 148.981C49.1216 147.936 49.2625 146.777 49.0653 145.652C48.8681 144.527 48.3416 143.485 47.5524 142.659C46.7633 141.833 45.7468 141.259 44.6317 141.011C43.5166 140.762 42.3528 140.85 41.2876 141.263H41.2876C40.0569 141.733 39.0271 142.615 38.3734 143.759C38.2694 143.94 38.1751 144.126 38.0908 144.317L17.9383 189.995C17.8009 190.306 17.7262 190.641 17.7185 190.981C17.7107 191.321 17.77 191.66 17.8929 191.977C18.0159 192.294 18.2002 192.584 18.4352 192.83C18.6702 193.076 18.9513 193.273 19.2625 193.41L25.0924 195.983Z" fill="#0065FF"/>
<path d="M47.8329 167.734L27.8994 163.304L32.8331 150.251C33.6736 147.061 35.6296 144.277 38.3464 142.405C41.0631 140.534 44.3607 139.698 47.6408 140.049L47.8329 140.071L47.8329 167.734Z" fill="#2F2E41"/>
<path d="M88.0953 196.636C87.509 196.635 86.9355 196.464 86.4443 196.144C85.953 195.824 85.565 195.369 85.3271 194.833L65.1746 149.155C64.5337 147.702 64.4742 146.058 65.0082 144.562C65.5422 143.067 66.6291 141.832 68.0454 141.113C69.4618 140.394 71.0997 140.246 72.6223 140.698C74.1448 141.15 75.4363 142.169 76.2308 143.544V143.544C76.3425 143.738 76.4438 143.938 76.5342 144.143L96.6867 189.82C97.0102 190.554 97.0292 191.386 96.7395 192.133C96.4497 192.88 95.875 193.482 95.1417 193.806L89.1142 196.465L89.1112 196.458C88.7854 196.576 88.4417 196.636 88.0953 196.636Z" fill="#0065FF"/>
<path d="M60.2192 180.951C59.5325 180.952 58.8741 181.225 58.3884 181.71C57.9028 182.196 57.6297 182.855 57.6289 183.541V236.654C57.6297 237.34 57.9028 237.999 58.3884 238.485C58.8741 238.97 59.5325 239.243 60.2192 239.244H66.5913C67.278 239.243 67.9365 238.97 68.4221 238.485C68.9077 237.999 69.1809 237.34 69.1816 236.654V183.541C69.1809 182.855 68.9077 182.196 68.4221 181.71C67.9365 181.225 67.278 180.952 66.5913 180.951H60.2192Z" fill="#0065FF"/>
<path d="M47.6162 180.951C46.9295 180.952 46.271 181.225 45.7854 181.71C45.2998 182.196 45.0266 182.855 45.0259 183.541V236.654C45.0266 237.34 45.2998 237.999 45.7854 238.485C46.271 238.97 46.9295 239.243 47.6162 239.244H53.9883C54.6751 239.243 55.3335 238.97 55.8192 238.485C56.3048 237.999 56.5779 237.34 56.5787 236.654V183.541C56.5779 182.855 56.3048 182.196 55.8192 181.71C55.3335 181.225 54.6751 180.952 53.9883 180.951H47.6162Z" fill="#0065FF"/>
<path d="M56.9134 125.306C69.0736 125.306 78.9313 115.448 78.9313 103.287C78.9313 91.1257 69.0736 81.2672 56.9134 81.2672C44.7533 81.2672 34.8955 91.1257 34.8955 103.287C34.8955 115.448 44.7533 125.306 56.9134 125.306Z" fill="#0065FF"/>
<path d="M64.2403 112.53C65.6676 112.491 67.4438 112.441 68.8123 111.441C69.2198 111.132 69.5546 110.736 69.7932 110.283C70.0319 109.83 70.1686 109.331 70.1938 108.819C70.2186 108.456 70.159 108.092 70.0196 107.755C69.8803 107.419 69.665 107.119 69.3907 106.879C68.6759 106.275 67.6323 106.134 66.5075 106.464L67.6728 97.9477L66.8174 97.8305L65.4474 107.843L66.1618 107.515C66.99 107.135 68.1269 106.942 68.8333 107.539C69.0068 107.695 69.1419 107.889 69.2282 108.106C69.3146 108.323 69.3497 108.556 69.331 108.789C69.31 109.17 69.2074 109.541 69.03 109.879C68.8526 110.216 68.6046 110.511 68.3029 110.744C67.238 111.522 65.8222 111.622 64.2163 111.667L64.2403 112.53Z" fill="#2F2E41"/>
<path d="M76.5539 98.6822H71.9036V99.5457H76.5539V98.6822Z" fill="#2F2E41"/>
<path d="M61.8752 98.6822H57.2249V99.5457H61.8752V98.6822Z" fill="#2F2E41"/>
<path d="M78.7298 196.904L70.805 139.049C70.72 138.429 70.4132 137.86 69.9414 137.448C69.4696 137.037 68.8646 136.81 68.2385 136.81H62.2568C62.2817 136.667 62.2947 136.523 62.2956 136.378V134.219C62.2956 133.532 62.0227 132.873 61.5369 132.388C61.0511 131.902 60.3923 131.629 59.7053 131.629H54.5246C53.8376 131.629 53.1787 131.902 52.6929 132.388C52.2072 132.873 51.9342 133.532 51.9342 134.219V136.378C51.9351 136.523 51.9481 136.667 51.973 136.81H45.9913C45.3652 136.81 44.7602 137.037 44.2884 137.448C43.8166 137.86 43.5098 138.429 43.4248 139.049L35.5 196.904C35.4498 197.271 35.4787 197.644 35.5847 197.998C35.6906 198.353 35.8713 198.68 36.1144 198.959C36.3575 199.238 36.6575 199.461 36.9942 199.614C37.3309 199.767 37.6965 199.847 38.0664 199.847H76.1634C76.5333 199.847 76.8989 199.767 77.2355 199.614C77.5722 199.461 77.8723 199.238 78.1154 198.959C78.3585 198.68 78.5392 198.353 78.6451 197.998C78.7511 197.644 78.78 197.271 78.7298 196.904Z" fill="#2F2E41"/>
<path d="M66.397 167.734V140.071L66.589 140.049C69.8732 139.698 73.1744 140.537 75.8929 142.413C78.6114 144.289 80.5667 147.078 81.4038 150.273L86.3304 163.304L66.397 167.734Z" fill="#2F2E41"/>
<path d="M55.8046 125.994L40.5754 120.082C38.0851 119.115 35.5809 118.178 33.1037 117.178C32.0427 116.808 31.0652 116.232 30.2278 115.483C29.4987 114.711 29.0018 113.749 28.794 112.708C28.2658 110.475 28.3613 108.034 28.399 105.756C28.4282 103.263 28.6333 100.776 29.0128 98.3119C29.6778 93.6822 31.2397 89.2266 33.6107 85.1949C37.8817 78.1868 45.2402 72.9142 53.7044 73.335C57.623 73.5298 61.5642 74.9361 64.4757 77.6154C64.7794 77.9784 65.1201 78.3087 65.4924 78.6009C65.7512 78.698 66.0327 78.7169 66.3022 78.6553C66.6574 78.6324 67.013 78.615 67.3689 78.6029C68.6037 78.5509 69.8407 78.6027 71.0668 78.7581C73.3013 78.9995 75.419 79.8789 77.1672 81.2913C78.6222 82.543 79.8061 84.3101 79.9279 86.2738C79.9867 87.1752 79.8377 88.0781 79.4923 88.9129C79.1469 89.7476 78.6143 90.4918 77.9358 91.0881C76.1189 92.6195 73.5266 92.0812 71.3471 91.9658L63.3629 91.5427L59.3176 91.3284C58.4846 91.2843 58.4871 92.5797 59.3176 92.6237L70.0696 93.1934C71.7975 93.2849 73.5782 93.5093 75.3075 93.4057C76.6362 93.3455 77.9049 92.8351 78.9051 91.9582C79.8186 91.119 80.499 90.0574 80.8801 88.8769C81.2612 87.6964 81.3299 86.4373 81.0795 85.2223C80.5252 82.5724 78.5532 80.3803 76.2414 79.0762C73.0958 77.3018 69.339 77.1318 65.8192 77.3941L66.2771 77.5838C62.2957 73.3102 56.197 71.5058 50.4716 72.1372C44.4265 72.8039 39.0499 76.1767 35.1869 80.7886C30.8798 85.9306 28.5327 92.3422 27.6202 98.9353C27.1454 102.495 26.9891 106.09 27.1531 109.677C27.1464 111.259 27.417 112.831 27.9528 114.319C28.5641 115.768 29.6693 116.953 31.072 117.664C32.6802 118.44 34.3335 119.119 36.023 119.698L41.6338 121.875L52.6549 126.154L55.4603 127.243C56.2378 127.544 56.5746 126.292 55.8046 125.994Z" fill="#2F2E41"/>
<path d="M31.8592 81.9767C30.5357 81.9767 29.2419 81.5842 28.1415 80.8489C27.041 80.1135 26.1833 79.0683 25.6769 77.8455C25.1704 76.6226 25.0379 75.277 25.2961 73.9789C25.5543 72.6807 26.1916 71.4883 27.1274 70.5523C28.0633 69.6164 29.2556 68.979 30.5537 68.7208C31.8518 68.4626 33.1973 68.5951 34.42 69.1016C35.6428 69.6082 36.6879 70.4659 37.4231 71.5665C38.1584 72.667 38.5509 73.9609 38.5509 75.2845C38.5489 77.0587 37.8433 78.7598 36.5888 80.0144C35.3342 81.269 33.6333 81.9747 31.8592 81.9767ZM31.8592 69.8875C30.7919 69.8875 29.7485 70.204 28.861 70.7971C27.9736 71.3901 27.2819 72.233 26.8734 73.2191C26.465 74.2053 26.3581 75.2905 26.5663 76.3374C26.7746 77.3843 27.2885 78.3459 28.0433 79.1007C28.798 79.8555 29.7596 80.3695 30.8064 80.5777C31.8532 80.786 32.9383 80.6791 33.9244 80.2706C34.9105 79.8621 35.7533 79.1704 36.3463 78.2829C36.9392 77.3953 37.2557 76.3519 37.2557 75.2845C37.2541 73.8536 36.6851 72.4818 35.6734 71.47C34.6617 70.4582 33.29 69.8891 31.8592 69.8875Z" fill="#2F2E41"/>
<path d="M143.721 123.449L129.237 112.371L118.159 126.856L132.643 137.934L143.721 123.449Z" fill="#F0F0F0"/>
<path d="M61.8639 24.5529C64.1524 24.5511 66.4094 25.0853 68.4544 26.1126C70.4994 27.1399 72.2754 28.6319 73.6402 30.469L82.0976 19.41L56.7214 0L37.313 25.3783L48.25 33.7439C49.3445 31.0293 51.2255 28.7037 53.6513 27.066C56.0771 25.4283 58.9371 24.5531 61.8639 24.5529Z" fill="#F0F0F0"/>
<path d="M305.229 240H0.431724C0.317223 240 0.207413 239.955 0.126449 239.874C0.0454847 239.793 0 239.683 0 239.568C0 239.454 0.0454847 239.344 0.126449 239.263C0.207413 239.182 0.317223 239.136 0.431724 239.136H305.229C305.343 239.136 305.453 239.182 305.534 239.263C305.615 239.344 305.66 239.454 305.66 239.568C305.66 239.683 305.615 239.793 305.534 239.874C305.453 239.955 305.343 240 305.229 240Z" fill="#3F3D56"/>
<path d="M230.837 168.358H199.813C198.668 168.357 197.571 167.902 196.762 167.092C195.952 166.283 195.497 165.185 195.496 164.041V161.891C195.497 160.747 195.952 159.649 196.762 158.84C197.571 158.031 198.668 157.575 199.813 157.574H230.837C231.982 157.575 233.079 158.031 233.889 158.84C234.698 159.649 235.153 160.747 235.155 161.891V164.041C235.153 165.185 234.698 166.283 233.889 167.092C233.079 167.902 231.982 168.357 230.837 168.358Z" fill="#0065FF"/>
<path d="M234.106 164.215H203.081C201.88 164.214 200.727 163.736 199.878 162.886C199.028 162.036 198.55 160.884 198.548 159.682V157.533C198.55 156.331 199.028 155.178 199.878 154.328C200.727 153.479 201.88 153.001 203.081 152.999H234.106C235.308 153.001 236.46 153.479 237.31 154.328C238.16 155.178 238.638 156.331 238.639 157.533V159.682C238.638 160.884 238.16 162.036 237.31 162.886C236.46 163.736 235.308 164.214 234.106 164.215ZM203.081 153.863C202.109 153.864 201.176 154.251 200.488 154.939C199.8 155.627 199.413 156.56 199.412 157.533V159.682C199.413 160.655 199.8 161.588 200.488 162.276C201.176 162.964 202.109 163.351 203.081 163.352H234.106C235.079 163.351 236.012 162.964 236.7 162.276C237.388 161.588 237.775 160.655 237.776 159.682V157.533C237.775 156.56 237.388 155.627 236.7 154.939C236.012 154.251 235.079 153.864 234.106 153.863H203.081Z" fill="#3F3D56"/>
<path d="M201.518 83.276C201.518 83.556 201.499 83.8687 201.462 84.214H196.478C196.497 84.6527 196.646 84.9933 196.926 85.236C197.206 85.4787 197.584 85.6 198.06 85.6C198.713 85.6 199.133 85.39 199.32 84.97H201.42C201.317 85.6327 200.953 86.174 200.328 86.594C199.712 87.0047 198.956 87.21 198.06 87.21C196.912 87.21 196.007 86.8927 195.344 86.258C194.681 85.6233 194.35 84.746 194.35 83.626C194.35 82.5247 194.681 81.6567 195.344 81.022C196.007 80.378 196.889 80.056 197.99 80.056C199.035 80.056 199.885 80.3547 200.538 80.952C201.191 81.5493 201.518 82.324 201.518 83.276ZM196.478 82.884H199.404C199.395 82.436 199.269 82.0907 199.026 81.848C198.783 81.6053 198.433 81.484 197.976 81.484C197.519 81.484 197.155 81.6147 196.884 81.876C196.623 82.128 196.487 82.464 196.478 82.884ZM205.473 87.21C204.502 87.21 203.727 87 203.149 86.58C202.57 86.16 202.281 85.6233 202.281 84.97H204.409C204.409 85.2033 204.511 85.3947 204.717 85.544C204.922 85.6933 205.188 85.768 205.515 85.768C205.748 85.768 205.935 85.712 206.075 85.6C206.224 85.488 206.299 85.334 206.299 85.138C206.299 84.83 206.135 84.6387 205.809 84.564L204.157 84.144C203.606 84.004 203.186 83.766 202.897 83.43C202.607 83.094 202.463 82.6833 202.463 82.198C202.463 81.5633 202.724 81.05 203.247 80.658C203.769 80.2567 204.469 80.056 205.347 80.056C206.317 80.056 207.059 80.2427 207.573 80.616C208.095 80.9893 208.357 81.5027 208.357 82.156H206.243C206.243 81.9227 206.159 81.7407 205.991 81.61C205.832 81.4793 205.608 81.414 205.319 81.414C205.085 81.414 204.899 81.4653 204.759 81.568C204.619 81.6707 204.549 81.806 204.549 81.974C204.549 82.2727 204.74 82.4733 205.123 82.576L206.719 83.01C207.251 83.15 207.666 83.3833 207.965 83.71C208.273 84.0273 208.427 84.4193 208.427 84.886C208.427 85.586 208.161 86.1507 207.629 86.58C207.106 87 206.387 87.21 205.473 87.21ZM211.787 79.272C211.535 79.524 211.218 79.65 210.835 79.65C210.452 79.65 210.135 79.524 209.883 79.272C209.64 79.02 209.519 78.712 209.519 78.348C209.519 77.9747 209.64 77.662 209.883 77.41C210.135 77.158 210.452 77.032 210.835 77.032C211.218 77.032 211.535 77.1627 211.787 77.424C212.039 77.676 212.165 77.984 212.165 78.348C212.165 78.712 212.039 79.02 211.787 79.272ZM209.757 87V80.252H211.899V87H209.757ZM215.263 87L212.827 80.252H215.067L216.285 84.34L217.433 80.252H219.519L220.667 84.34L221.885 80.252H224.111L221.689 87H219.771L218.469 82.898L217.181 87H215.263ZM227.47 87.182C226.49 87.182 225.716 86.8507 225.146 86.188C224.577 85.5253 224.292 84.6713 224.292 83.626C224.292 82.5993 224.586 81.75 225.174 81.078C225.762 80.406 226.537 80.07 227.498 80.07C227.974 80.07 228.399 80.1727 228.772 80.378C229.146 80.5833 229.426 80.8633 229.612 81.218V80.252H231.74V87H229.612V86.048C229.426 86.384 229.136 86.6593 228.744 86.874C228.362 87.0793 227.937 87.182 227.47 87.182ZM228.086 85.404C228.6 85.404 228.996 85.236 229.276 84.9C229.556 84.564 229.696 84.1393 229.696 83.626C229.696 83.122 229.556 82.702 229.276 82.366C228.996 82.03 228.6 81.862 228.086 81.862C227.601 81.862 227.209 82.0253 226.91 82.352C226.621 82.6787 226.476 83.1033 226.476 83.626C226.476 84.1487 226.621 84.578 226.91 84.914C227.209 85.2407 227.601 85.404 228.086 85.404ZM238.083 80.252H240.225V86.79C240.225 87.8353 239.903 88.6473 239.259 89.226C238.652 89.7487 237.826 90.01 236.781 90.01C235.689 90.01 234.858 89.7767 234.289 89.31C233.738 88.8433 233.458 88.2507 233.449 87.532H235.605C235.651 88.1387 236.043 88.442 236.781 88.442C237.649 88.442 238.083 87.938 238.083 86.93V85.88C237.691 86.6267 236.977 87 235.941 87C235.11 87 234.485 86.748 234.065 86.244C233.654 85.74 233.449 85.0493 233.449 84.172V80.252H235.591V83.85C235.591 84.8207 235.987 85.306 236.781 85.306C237.201 85.306 237.523 85.1567 237.747 84.858C237.971 84.55 238.083 84.13 238.083 83.598V80.252ZM244.277 86.734C244.016 87.0047 243.689 87.14 243.297 87.14C242.905 87.14 242.574 87.0047 242.303 86.734C242.042 86.4633 241.911 86.1413 241.911 85.768C241.911 85.3853 242.042 85.0633 242.303 84.802C242.574 84.5313 242.905 84.396 243.297 84.396C243.689 84.396 244.016 84.5313 244.277 84.802C244.548 85.0633 244.683 85.3853 244.683 85.768C244.683 86.1413 244.548 86.4633 244.277 86.734Z" fill="#3F3D56"/>
</g>
<defs>
<clipPath id="clip0_208_924">
<rect width="305.66" height="240" fill="white"/>
</clipPath>
</defs>
</svg>
