<svg width="114" height="33" viewBox="0 0 114 33" fill="none" xmlns="http://www.w3.org/2000/svg">
<path d="M23.3628 8.77315V10.1765C23.3617 12.5026 22.4371 14.733 20.7922 16.3774C19.1474 18.0218 16.917 18.9455 14.5914 18.9455H10.8761C10.6703 18.9461 10.4667 18.904 10.278 18.8218C10.0894 18.7397 9.91984 18.6192 9.78017 18.468C8.38537 16.9567 7.39739 14.4863 9.913 10.9529L12.2709 14.0462L17.85 7.00856L6.83283 6.87984L8.60123 9.2008L13.5287 8.42023L9.3775 10.2139C9.3775 10.2139 1.71859 14.2953 6.64188 21.9765C7.25793 22.947 7.58347 24.0737 7.58005 25.2233V25.4226C7.58121 26.4174 7.38599 27.4026 7.00559 28.3217C6.62519 29.2408 6.0671 30.0758 5.36332 30.7787C4.66006 31.4845 3.8241 32.0442 2.9036 32.4254C1.98311 32.8066 0.996291 33.0019 4.52239e-06 33V1.91407C-0.000542733 1.66256 0.0485828 1.41341 0.144561 1.18094C0.240539 0.948469 0.381479 0.737247 0.559291 0.559401C0.737103 0.381554 0.948284 0.240586 1.18071 0.144589C1.41314 0.0485923 1.66223 -0.000542839 1.9137 4.52328e-06H14.5914C16.9177 4.52328e-06 19.1488 0.924315 20.7937 2.5696C22.4387 4.21488 23.3628 6.44637 23.3628 8.77315Z" fill="#4345FD"/>
<path d="M32.7916 30.0838V9.00963H36.4239V10.1449C37.6063 9.18939 38.9778 8.71161 40.5386 8.71161C41.7966 8.71161 42.9554 9.03328 44.0148 9.67662C45.0742 10.32 45.9113 11.2046 46.5262 12.3304C47.1505 13.4563 47.4626 14.7004 47.4626 16.0627C47.4626 18.0022 46.8714 19.6531 45.689 21.0155C45.0553 21.744 44.2607 22.3211 43.3054 22.7469C42.3595 23.1726 41.371 23.3855 40.34 23.3855C38.94 23.3855 37.682 22.9597 36.5658 22.1083V30.0838H32.7916ZM36.5658 13.9482V18.1631C36.9347 18.7023 37.4171 19.1281 38.013 19.4403C38.6089 19.7525 39.2569 19.9086 39.9569 19.9086C41.0257 19.9086 41.9149 19.5443 42.6243 18.8159C43.3337 18.0874 43.6885 17.1697 43.6885 16.0627C43.6885 15.0126 43.3479 14.1091 42.6669 13.3522C41.9953 12.5859 41.1251 12.2027 40.0562 12.2027C39.3468 12.2027 38.6846 12.3588 38.0698 12.671C37.4644 12.9832 36.9631 13.4089 36.5658 13.9482Z" fill="#191A2B"/>
<path d="M59.6648 8.82514L59.2391 12.3446C58.9554 12.25 58.5013 12.2027 57.877 12.2027C57.1203 12.2027 56.4298 12.4156 55.8055 12.8413C55.1812 13.267 54.7272 13.7306 54.4434 14.232V23.1016H50.6692V9.00963H54.3015V10.4288C54.7272 9.89895 55.2994 9.48267 56.0183 9.17993C56.7467 8.86772 57.5365 8.71161 58.3878 8.71161C58.6905 8.71161 59.1162 8.74945 59.6648 8.82514Z" fill="#191A2B"/>
<path d="M66.3618 9.00963V23.1016H62.5876V9.00963H66.3618ZM62.7295 5.71724C62.2471 5.25365 62.0059 4.68127 62.0059 4.00008C62.0059 3.3189 62.2471 2.74651 62.7295 2.28293C63.2119 1.81934 63.7937 1.58755 64.4747 1.58755C65.1558 1.58755 65.7375 1.81934 66.2199 2.28293C66.7023 2.74651 66.9435 3.3189 66.9435 4.00008C66.9435 4.68127 66.7023 5.25365 66.2199 5.71724C65.7375 6.18082 65.1558 6.41261 64.4747 6.41261C63.7937 6.41261 63.2119 6.18082 62.7295 5.71724Z" fill="#191A2B"/>
<path d="M84.2394 9.00963V22.3211C84.2394 24.5917 83.8138 26.3325 82.9624 27.5435C82.3192 28.4329 81.449 29.1235 80.3517 29.6155C79.264 30.1169 78.0485 30.3676 76.7053 30.3676C75.3621 30.3676 74.0757 30.0933 72.846 29.5445C71.6258 28.9958 70.6562 28.3004 69.9373 27.4584L72.321 24.9891C72.5575 25.2445 72.7892 25.4669 73.0163 25.6561C73.2433 25.8548 73.5365 26.0676 73.8959 26.2947C74.2648 26.5218 74.6858 26.6968 75.1587 26.8198C75.6411 26.9522 76.1567 27.0185 76.7053 27.0185C77.9917 27.0185 78.9518 26.6448 79.5856 25.8973C79.8883 25.5662 80.1105 25.1452 80.2524 24.6343C80.3943 24.1329 80.4653 23.447 80.4653 22.5766V22.1083C79.3491 22.9597 78.0863 23.3855 76.6769 23.3855C75.6459 23.3855 74.6574 23.1726 73.7115 22.7469C72.7656 22.3211 71.9758 21.744 71.342 21.0155C70.1596 19.6531 69.5684 18.0022 69.5684 16.0627C69.5684 13.9908 70.24 12.25 71.5832 10.8403C72.9264 9.42118 74.5581 8.71161 76.4783 8.71161C78.0485 8.71161 79.4248 9.18939 80.6071 10.1449V9.00963H84.2394ZM80.4653 18.1631V13.9482C80.068 13.4089 79.5619 12.9832 78.9471 12.671C78.3417 12.3588 77.6843 12.2027 76.9749 12.2027C75.906 12.2027 75.031 12.5859 74.35 13.3522C73.6784 14.1091 73.3426 15.0126 73.3426 16.0627C73.3426 17.1697 73.6926 18.0874 74.3925 18.8159C75.102 19.5443 75.9911 19.9086 77.06 19.9086C77.76 19.9086 78.4079 19.7525 79.0038 19.4403C79.6092 19.1186 80.0964 18.6929 80.4653 18.1631Z" fill="#191A2B"/>
<path d="M97.6051 8.82514L97.1794 12.3446C96.8956 12.25 96.4416 12.2027 95.8173 12.2027C95.0606 12.2027 94.3701 12.4156 93.7458 12.8413C93.1215 13.267 92.6674 13.7306 92.3837 14.232V23.1016H88.6095V9.00963H92.2418V10.4288C92.6674 9.89895 93.2397 9.48267 93.9586 9.17993C94.6869 8.86772 95.4768 8.71161 96.3281 8.71161C96.6308 8.71161 97.0564 8.74945 97.6051 8.82514Z" fill="#191A2B"/>
<path d="M109.807 18.1631V13.9482C109.41 13.4089 108.904 12.9832 108.289 12.671C107.684 12.3588 107.026 12.2027 106.317 12.2027C105.248 12.2027 104.373 12.5859 103.692 13.3522C103.02 14.1091 102.685 15.0126 102.685 16.0627C102.685 17.1697 103.035 18.0874 103.735 18.8159C104.444 19.5443 105.333 19.9086 106.402 19.9086C107.102 19.9086 107.75 19.7525 108.346 19.4403C108.951 19.1186 109.438 18.6929 109.807 18.1631ZM113.581 9.00963V23.1016H109.949V21.9663C108.842 22.9124 107.532 23.3855 106.019 23.3855C104.988 23.3855 104.004 23.1726 103.068 22.7469C102.131 22.3211 101.346 21.744 100.712 21.0155C99.5111 19.6248 98.9104 17.9738 98.9104 16.0627C98.9104 13.9908 99.582 12.25 100.925 10.8403C102.268 9.42118 103.9 8.71161 105.82 8.71161C107.39 8.71161 108.767 9.18939 109.949 10.1449V9.00963H113.581Z" fill="#191A2B"/>
</svg>
