<svg width="23" height="23" viewBox="0 0 23 23" fill="none" xmlns="http://www.w3.org/2000/svg">
<path d="M2.75403 16.3682C3.23354 16.6423 3.84439 16.4757 4.1184 15.9961C5.18974 14.1213 6.48078 13.2845 7.81386 12.8824C9.10288 12.4937 10.457 12.4965 11.8757 12.4995C12 12.4997 12.1248 12.5 12.2501 12.5L17.3358 12.5L14.043 15.7929C13.6524 16.1834 13.6524 16.8166 14.043 17.2071C14.4335 17.5976 15.0666 17.5976 15.4572 17.2071L20.4571 12.2071C20.8476 11.8166 20.8476 11.1834 20.4571 10.7929L15.4572 5.79289C15.0666 5.40237 14.4335 5.40237 14.043 5.79289C13.6524 6.18342 13.6524 6.81658 14.043 7.20711L17.3358 10.5L12.2501 10.5C12.1196 10.5 11.9861 10.4995 11.8498 10.499C10.4771 10.494 8.82655 10.488 7.23638 10.9676C5.4195 11.5155 3.71056 12.6787 2.38193 15.0039C2.10792 15.4834 2.27451 16.0942 2.75403 16.3682Z" fill="white"/>
</svg>
