<svg width="28" height="28" viewBox="0 0 28 28" fill="none" xmlns="http://www.w3.org/2000/svg">
<path d="M12.5919 3.49635C13.4146 2.83626 14.5854 2.83626 15.4081 3.49635L23.1581 9.71468C23.6903 10.1417 24 10.7872 24 11.4696V22.75C24 23.9926 22.9926 25 21.75 25H18.75C17.5074 25 16.5 23.9926 16.5 22.75V16.75C16.5 16.3358 16.1642 16 15.75 16H12.25C11.8358 16 11.5 16.3358 11.5 16.75V22.75C11.5 23.9926 10.4926 25 9.25 25H6.25C5.00736 25 4 23.9926 4 22.75V11.4696C4 10.7872 4.30967 10.1417 4.84191 9.71468L12.5919 3.49635ZM14.4694 4.66631C14.1951 4.44627 13.8049 4.44627 13.5306 4.66631L5.78064 10.8846C5.60322 11.027 5.5 11.2422 5.5 11.4696V22.75C5.5 23.1642 5.83579 23.5 6.25 23.5H9.25C9.66421 23.5 10 23.1642 10 22.75V16.75C10 15.5074 11.0074 14.5 12.25 14.5H15.75C16.9926 14.5 18 15.5074 18 16.75V22.75C18 23.1642 18.3358 23.5 18.75 23.5H21.75C22.1642 23.5 22.5 23.1642 22.5 22.75V11.4696C22.5 11.2422 22.3968 11.027 22.2194 10.8846L14.4694 4.66631Z" fill="#212639"/>
</svg>
