<svg width="23" height="23" viewBox="0 0 23 23" fill="none" xmlns="http://www.w3.org/2000/svg">
<ellipse cx="11.4572" cy="11.5" rx="11.4572" ry="11.5" fill="#1EC069"/>
<path d="M11.23 17.165C10.09 17.165 9.195 16.87 8.545 16.28C7.905 15.68 7.585 14.85 7.585 13.79H8.98C8.98 14.49 9.175 15.035 9.565 15.425C9.965 15.805 10.52 15.995 11.23 15.995C11.85 15.995 12.35 15.825 12.73 15.485C13.12 15.145 13.315 14.7 13.315 14.15C13.315 13.55 13.13 13.09 12.76 12.77C12.39 12.44 11.855 12.275 11.155 12.275H10.405V11.09H11.17C11.79 11.09 12.26 10.945 12.58 10.655C12.91 10.365 13.075 9.945 13.075 9.395C13.075 8.915 12.9 8.525 12.55 8.225C12.21 7.925 11.76 7.775 11.2 7.775C10.58 7.775 10.085 7.95 9.715 8.3C9.345 8.64 9.16 9.105 9.16 9.695H7.825C7.825 8.765 8.13 8.025 8.74 7.475C9.35 6.915 10.17 6.635 11.2 6.635C12.18 6.635 12.97 6.89 13.57 7.4C14.17 7.9 14.47 8.565 14.47 9.395C14.47 10.575 13.85 11.33 12.61 11.66C13.22 11.74 13.72 12.01 14.11 12.47C14.5 12.93 14.695 13.49 14.695 14.15C14.695 15.04 14.37 15.765 13.72 16.325C13.08 16.885 12.25 17.165 11.23 17.165Z" fill="white"/>
</svg>
