<svg width="24" height="24" viewBox="0 0 24 24" fill="none" xmlns="http://www.w3.org/2000/svg">
<path d="M17.7543 13.9999C18.9963 13.9999 20.0032 15.0068 20.0032 16.2488V17.1673C20.0032 17.7406 19.8239 18.2996 19.4906 18.7661C17.9447 20.9294 15.4204 22.0011 12.0001 22.0011C8.57915 22.0011 6.05619 20.9289 4.51403 18.7646C4.18207 18.2987 4.00366 17.7408 4.00366 17.1688V16.2488C4.00366 15.0068 5.01052 13.9999 6.25254 13.9999H17.7543ZM12.0001 2.00462C14.7615 2.00462 17.0001 4.2432 17.0001 7.00462C17.0001 9.76605 14.7615 12.0046 12.0001 12.0046C9.2387 12.0046 7.00012 9.76605 7.00012 7.00462C7.00012 4.2432 9.2387 2.00462 12.0001 2.00462Z" fill="#9DA3B6"/>
</svg>
