<svg width="13" height="17" viewBox="0 0 13 17" fill="none" xmlns="http://www.w3.org/2000/svg">
<path d="M3.98724 1.06583C4.89563 0.79202 5.86272 1.19473 6.31436 2.01218L6.3886 2.16069L7.05005 3.63206C7.46264 4.54986 7.28227 5.61902 6.60772 6.34954L6.47548 6.48242L5.43212 7.45535C5.24435 7.63292 5.38531 8.32175 6.06545 9.4998C6.67734 10.5596 7.17505 11.0552 7.42004 11.0823L7.46298 11.0819L7.51598 11.0715L9.56669 10.4445C10.1334 10.2713 10.7439 10.4487 11.13 10.8865L11.2217 11.0013L12.5783 12.8815C13.13 13.6462 13.0691 14.6841 12.4535 15.3779L12.3316 15.5039L11.7888 16.0179C10.795 16.9591 9.34367 17.2346 8.07407 16.723C6.13885 15.9432 4.38095 14.1606 2.78387 11.3944C1.18342 8.62236 0.519187 6.20432 0.816161 4.13559C0.999953 2.85533 1.87319 1.78668 3.07767 1.34614L3.27055 1.28186L3.98724 1.06583Z" fill="#0065FF"/>
</svg>
