<svg width="14" height="16" viewBox="0 0 14 16" fill="none" xmlns="http://www.w3.org/2000/svg">
<path d="M11.9497 11.955C14.6834 9.2201 14.6834 4.78601 11.9497 2.05115C9.21608 -0.683716 4.78392 -0.683716 2.05025 2.05115C-0.683418 4.78601 -0.683418 9.2201 2.05025 11.955L3.57128 13.4538L5.61408 15.4389L5.74691 15.5567C6.52168 16.1847 7.65623 16.1455 8.38611 15.4391L10.8223 13.0691L11.9497 11.955ZM7 10C5.34315 10 4 8.65685 4 7C4 5.34315 5.34315 4 7 4C8.65685 4 10 5.34315 10 7C10 8.65685 8.65685 10 7 10Z" fill="#0065FF"/>
</svg>
