<svg width="14" height="14" viewBox="0 0 14 14" fill="none" xmlns="http://www.w3.org/2000/svg">
<path d="M11.5 0C12.8807 0 14 1.11929 14 2.5V3H0V2.5C0 1.11929 1.11929 0 2.5 0H11.5ZM0 4H14V11.5C14 12.8807 12.8807 14 11.5 14H2.5C1.11929 14 0 12.8807 0 11.5V4ZM9 7C9 7.55229 9.44772 8 10 8C10.5523 8 11 7.55229 11 7C11 6.44771 10.5523 6 10 6C9.44772 6 9 6.44771 9 7ZM10 11C10.5523 11 11 10.5523 11 10C11 9.44771 10.5523 9 10 9C9.44772 9 9 9.44771 9 10C9 10.5523 9.44772 11 10 11ZM6 7C6 7.55229 6.44771 8 7 8C7.55229 8 8 7.55229 8 7C8 6.44771 7.55229 6 7 6C6.44771 6 6 6.44771 6 7ZM7 11C7.55229 11 8 10.5523 8 10C8 9.44771 7.55229 9 7 9C6.44771 9 6 9.44771 6 10C6 10.5523 6.44771 11 7 11ZM3 7C3 7.55229 3.44771 8 4 8C4.55229 8 5 7.55229 5 7C5 6.44771 4.55229 6 4 6C3.44771 6 3 6.44771 3 7Z" fill="#0065FF"/>
</svg>
