<svg width="17" height="16" viewBox="0 0 17 16" fill="none" xmlns="http://www.w3.org/2000/svg">
<path d="M16.0065 2.0332C16.0049 0.934896 15.1179 0.0433895 14.0196 0.0361903L9.12922 0.00413239C8.59514 0.000631229 8.08184 0.210896 7.7037 0.588076L1.02216 7.25261C0.239413 8.03337 0.238604 9.30109 1.02036 10.0828L5.96875 15.0312C6.7498 15.8123 8.01613 15.8123 8.79718 15.0312L15.428 8.40042C15.8038 8.02463 16.0146 7.51472 16.0138 6.98326L16.0065 2.0332ZM12 5.00003C11.4477 5.00003 11 4.55231 11 4.00003C11 3.44774 11.4477 3.00003 12 3.00003C12.5523 3.00003 13 3.44774 13 4.00003C13 4.55231 12.5523 5.00003 12 5.00003Z" fill="#0065FF"/>
</svg>
