<svg width="23" height="23" viewBox="0 0 23 23" fill="none" xmlns="http://www.w3.org/2000/svg">
<ellipse cx="11.4572" cy="11.5" rx="11.4572" ry="11.5" fill="#E5ECFF"/>
<path d="M7.795 16C7.795 14.87 7.99 13.955 8.38 13.255C8.77 12.555 9.42 11.965 10.33 11.485L11.89 10.675C12.83 10.185 13.3 9.475 13.3 8.545C13.3 8.035 13.135 7.625 12.805 7.315C12.475 6.995 12.045 6.835 11.515 6.835C10.855 6.835 10.34 7.04 9.97 7.45C9.61 7.86 9.43 8.44 9.43 9.19H8.02C8.02 8.11 8.335 7.25 8.965 6.61C9.605 5.96 10.455 5.635 11.515 5.635C12.505 5.635 13.29 5.89 13.87 6.4C14.45 6.91 14.74 7.605 14.74 8.485C14.74 9.815 14.08 10.84 12.76 11.56L11.2 12.385C10.57 12.725 10.13 13.065 9.88 13.405C9.63 13.735 9.47 14.19 9.4 14.77H14.755V16H7.795Z" fill="white"/>
</svg>
